<svg xmlns="http://www.w3.org/2000/svg" width="32" height="32" viewBox="0 0 32 32" fill="none">
    <g style="mix-blend-mode:multiply">
        <path fill-rule="evenodd" clip-rule="evenodd" d="M14.586 16.2391L14.8252 15.9999L14.586 15.7607L13.411 14.5857L11.336 12.5107L10.7543 11.9291C10.4299 11.6046 10.4299 11.0786 10.7543 10.7541C11.0788 10.4296 11.6049 10.4296 11.9293 10.7541L12.511 11.3357L14.586 13.4107L15.761 14.5857L16.0002 14.8249L16.2394 14.5857L17.4144 13.4107L19.4894 11.3357L20.071 10.7541C20.3955 10.4296 20.9215 10.4296 21.246 10.7541C21.5705 11.0786 21.5705 11.6046 21.246 11.9291L20.6644 12.5107L18.5894 14.5857L17.4144 15.7607L17.1752 15.9999L17.4144 16.2391L18.5894 17.4141L20.6644 19.4891L21.246 20.0708C21.5705 20.3952 21.5705 20.9213 21.246 21.2458C20.9215 21.5702 20.3955 21.5702 20.071 21.2458L19.4894 20.6641L17.4144 18.5891L16.2394 17.4141L16.0002 17.1749L15.761 17.4141L14.586 18.5891L12.511 20.6641L11.9293 21.2458C11.6049 21.5702 11.0788 21.5702 10.7543 21.2458C10.4299 20.9213 10.4299 20.3952 10.7543 20.0708L11.336 19.4891L13.411 17.4141L14.586 16.2391Z" fill="black"/>
    </g>
</svg>