<svg xmlns="http://www.w3.org/2000/svg" width="16" height="16" viewBox="0 0 16 16" fill="none">
    <path fill-rule="evenodd" clip-rule="evenodd" d="M7.01849 1.522C7.31802 1.35336 7.65595 1.26477 7.99969 1.26477C8.34342 1.26477 8.68136 1.35336 8.98088 1.522C9.28041 1.69063 9.53142 1.93362 9.70969 2.22751L9.71161 2.23068L9.7116 2.23069L15.3583 11.6574L15.3637 11.6666C15.5383 11.969 15.6307 12.3119 15.6317 12.6611C15.6327 13.0103 15.5422 13.3537 15.3693 13.6571C15.1963 13.9605 14.947 14.2133 14.646 14.3904C14.345 14.5675 14.0029 14.6627 13.6537 14.6666L13.6464 14.6666V14.6666H2.35302H2.34569L2.34569 14.6666C1.99649 14.6627 1.65438 14.5675 1.3534 14.3904C1.05242 14.2133 0.803057 13.9605 0.630121 13.6571C0.457186 13.3537 0.366706 13.0103 0.367684 12.6611C0.368661 12.3119 0.461063 11.969 0.635695 11.6666L0.64111 11.6574L6.28778 2.23069L6.85968 2.57326L6.28969 2.22751C6.46796 1.93362 6.71897 1.69063 7.01849 1.522ZM7.4305 2.91769L1.78815 12.3372C1.73136 12.437 1.70133 12.5499 1.70101 12.6648C1.70069 12.7812 1.73085 12.8957 1.78849 12.9968C1.84614 13.0979 1.92926 13.1822 2.02958 13.2413C2.12903 13.2998 2.24195 13.3315 2.35729 13.3333H13.6421C13.7574 13.3315 13.8703 13.2998 13.9698 13.2413C14.0701 13.1822 14.1532 13.0979 14.2109 12.9968C14.2685 12.8957 14.2987 12.7812 14.2984 12.6648C14.298 12.5499 14.268 12.437 14.2113 12.3372L8.56969 2.91902L8.56888 2.91769C8.50951 2.82032 8.42615 2.7398 8.32675 2.68385C8.22691 2.62763 8.11427 2.5981 7.99969 2.5981C7.88511 2.5981 7.77247 2.62763 7.67262 2.68385C7.57323 2.7398 7.48987 2.82032 7.4305 2.91769ZM7.99967 5.33329C8.36786 5.33329 8.66634 5.63177 8.66634 5.99996V8.66663C8.66634 9.03482 8.36786 9.33329 7.99967 9.33329C7.63148 9.33329 7.33301 9.03482 7.33301 8.66663V5.99996C7.33301 5.63177 7.63148 5.33329 7.99967 5.33329ZM7.99967 10.6666C7.63148 10.6666 7.33301 10.9651 7.33301 11.3333C7.33301 11.7015 7.63148 12 7.99967 12H8.00634C8.37453 12 8.67301 11.7015 8.67301 11.3333C8.67301 10.9651 8.37453 10.6666 8.00634 10.6666H7.99967Z" fill="#EA3E67"/>
</svg>